<svg width="51" height="40" viewBox="0 0 51 40" fill="none" xmlns="http://www.w3.org/2000/svg">
<path d="M10.112 31.948C8.27733 31.948 6.50667 31.724 4.8 31.276C3.11467 30.8067 1.73867 30.2093 0.672 29.484L2.752 24.812C3.75467 25.452 4.90667 25.9853 6.208 26.412C7.53067 26.8173 8.84267 27.02 10.144 27.02C11.0187 27.02 11.7227 26.9453 12.256 26.796C12.7893 26.6253 13.1733 26.412 13.408 26.156C13.664 25.8787 13.792 25.5587 13.792 25.196C13.792 24.684 13.5573 24.2787 13.088 23.98C12.6187 23.6813 12.0107 23.436 11.264 23.244C10.5173 23.052 9.68533 22.86 8.768 22.668C7.872 22.476 6.96533 22.2307 6.048 21.932C5.152 21.6333 4.33067 21.2493 3.584 20.78C2.83733 20.2893 2.22933 19.66 1.76 18.892C1.29067 18.1027 1.056 17.1107 1.056 15.916C1.056 14.572 1.41867 13.356 2.144 12.268C2.89067 11.18 4 10.3053 5.472 9.644C6.944 8.98267 8.77867 8.652 10.976 8.652C12.448 8.652 13.888 8.82267 15.296 9.164C16.7253 9.484 17.9947 9.964 19.104 10.604L17.152 15.308C16.0853 14.732 15.0293 14.3053 13.984 14.028C12.9387 13.7293 11.9253 13.58 10.944 13.58C10.0693 13.58 9.36533 13.676 8.832 13.868C8.29867 14.0387 7.91467 14.2733 7.68 14.572C7.44533 14.8707 7.328 15.212 7.328 15.596C7.328 16.0867 7.552 16.4813 8 16.78C8.46933 17.0573 9.07733 17.292 9.824 17.484C10.592 17.6547 11.424 17.836 12.32 18.028C13.2373 18.22 14.144 18.4653 15.04 18.764C15.9573 19.0413 16.7893 19.4253 17.536 19.916C18.2827 20.3853 18.88 21.0147 19.328 21.804C19.7973 22.572 20.032 23.5427 20.032 24.716C20.032 26.0173 19.6587 27.2227 18.912 28.332C18.1867 29.42 17.088 30.2947 15.616 30.956C14.1653 31.6173 12.3307 31.948 10.112 31.948ZM28.154 31.5V22.028L29.626 25.836L19.61 9.1H26.298L33.53 21.228H29.658L36.922 9.1H43.066L33.082 25.836L34.49 22.028V31.5H28.154ZM45.6995 31.788C44.6755 31.788 43.8115 31.4467 43.1075 30.764C42.4035 30.0813 42.0515 29.2173 42.0515 28.172C42.0515 27.084 42.4035 26.22 43.1075 25.58C43.8115 24.9187 44.6755 24.588 45.6995 24.588C46.7235 24.588 47.5875 24.9187 48.2915 25.58C48.9955 26.22 49.3475 27.084 49.3475 28.172C49.3475 29.2173 48.9955 30.0813 48.2915 30.764C47.5875 31.4467 46.7235 31.788 45.6995 31.788Z" fill="black"/>
</svg>
